<?xml version="1.0" standalone="no"?>
<!DOCTYPE svg PUBLIC "-//W3C//DTD SVG 20010904//EN"
 "http://www.w3.org/TR/2001/REC-SVG-20010904/DTD/svg10.dtd">
<svg version="1.0" xmlns="http://www.w3.org/2000/svg"
 width="324.000000pt" height="324.000000pt" viewBox="0 0 324.000000 324.000000"
 preserveAspectRatio="xMidYMid meet">
<metadata>
Created by potrace 1.11, written by Peter Selinger 2001-2013
</metadata>
<g transform="translate(0.000000,324.000000) scale(0.100000,-0.100000)"
fill="#000000" stroke="none">
<path d="M1464 3199 c-4 -8 -3 -9 4 -5 17 10 15 1 -4 -14 -8 -8 -14 -9 -12 -3
2 6 0 11 -4 12 -21 3 -29 0 -23 -8 3 -5 1 -13 -5 -16 -6 -4 -9 -1 -8 7 2 7 -4
13 -12 13 -8 0 -14 -8 -14 -18 2 -14 -1 -15 -12 -6 -11 9 -19 8 -36 -7 -14
-12 -18 -14 -13 -4 7 12 6 13 -7 3 -8 -7 -18 -10 -21 -6 -4 3 -7 1 -7 -5 0
-16 -33 -15 -49 1 -10 10 -11 8 -5 -8 5 -16 4 -18 -6 -8 -14 13 -39 6 -58 -16
-8 -9 -11 -10 -7 -4 4 9 1 11 -9 7 -9 -3 -13 -11 -9 -18 5 -8 3 -8 -8 0 -16
12 -39 13 -39 2 0 -5 0 -11 0 -14 0 -4 8 -1 18 7 9 7 2 -2 -16 -19 -18 -18
-38 -32 -44 -32 -5 0 0 8 12 18 18 14 19 19 7 19 -9 0 -14 -4 -11 -9 5 -7 -10
-12 -29 -9 -4 1 -12 -10 -19 -24 -6 -13 -15 -22 -19 -19 -5 3 -6 -3 -2 -12 4
-10 2 -15 -3 -11 -5 3 -10 -3 -10 -14 0 -23 8 -15 33 33 19 36 20 36 37 16 16
-19 16 -19 -1 -14 -14 4 -25 -4 -43 -33 -13 -22 -26 -39 -29 -37 -4 1 -17 -9
-31 -22 -14 -14 -19 -21 -11 -17 10 6 12 4 7 -4 -6 -9 -11 -9 -21 -1 -11 10
-13 8 -10 -9 3 -18 1 -20 -14 -11 -16 8 -17 6 -13 -17 3 -16 1 -24 -6 -20 -5
4 -13 0 -16 -9 -4 -9 -13 -14 -21 -10 -14 5 -20 -6 -16 -28 1 -5 -4 -4 -13 3
-10 8 -16 9 -21 1 -3 -6 -10 -8 -15 -5 -5 3 -7 -4 -5 -16 3 -16 1 -19 -6 -12
-8 8 -16 7 -27 -3 -62 -53 -76 -64 -84 -64 -5 0 -6 -5 -3 -10 3 -6 -1 -13 -9
-16 -8 -3 -18 -14 -21 -25 -4 -11 -10 -17 -15 -14 -4 3 -11 -7 -14 -20 -4 -16
-11 -23 -18 -19 -6 4 -8 3 -5 -4 8 -12 -2 -44 -12 -38 -4 3 -8 -5 -8 -17 -1
-12 -7 -23 -12 -25 -5 -2 -7 -10 -4 -18 3 -8 1 -14 -5 -14 -6 0 -9 -11 -7 -25
1 -14 -3 -25 -9 -25 -7 0 -7 -3 -1 -8 14 -10 17 -32 4 -32 -6 0 -9 -7 -5 -15
3 -10 -1 -15 -11 -15 -14 0 -14 -2 3 -15 13 -11 14 -14 4 -13 -8 2 -14 -3 -13
-9 2 -7 -1 -13 -5 -13 -5 0 -7 -13 -4 -30 3 -19 8 -27 16 -23 6 4 5 -1 -3 -10
-11 -14 -11 -17 0 -17 11 0 11 -2 -1 -10 -13 -9 -13 -10 0 -10 13 0 13 -1 0
-10 -13 -9 -13 -10 0 -10 13 0 13 -1 0 -10 -10 -6 -11 -10 -2 -10 6 0 12 -5
12 -11 0 -5 -4 -8 -8 -5 -4 2 -8 -6 -8 -19 0 -13 4 -21 8 -19 4 3 8 -2 8 -11
0 -10 -5 -13 -12 -9 -10 6 -10 5 0 -8 6 -8 12 -26 11 -39 -1 -37 7 -64 19 -64
6 0 14 -4 19 -9 5 -5 3 -6 -5 -2 -7 4 -12 1 -12 -8 0 -9 5 -16 10 -16 6 0 10
-14 10 -31 0 -16 3 -28 7 -26 5 3 8 -17 8 -44 0 -27 -4 -48 -10 -46 -5 1 -9 7
-7 12 2 6 -8 -1 -23 -15 -14 -14 -27 -35 -29 -45 -6 -30 -19 -149 -18 -160 1
-5 3 -30 6 -55 4 -42 29 -159 36 -167 2 -2 4 -7 5 -13 1 -5 3 -11 5 -12 1 -2
3 -12 5 -23 2 -11 6 -33 10 -50 4 -16 8 -34 9 -40 1 -5 4 -14 7 -20 4 -5 12
-31 20 -57 7 -27 17 -48 21 -48 4 0 8 -8 8 -19 0 -22 43 -71 63 -71 26 0 45
-35 52 -95 4 -33 12 -78 17 -100 6 -22 12 -49 13 -60 0 -11 9 -46 19 -78 9
-32 16 -63 14 -70 -4 -21 160 -249 244 -338 13 -14 22 -31 20 -37 -2 -7 0 -12
5 -12 5 0 28 -18 52 -40 24 -23 76 -68 117 -100 64 -53 79 -61 126 -66 85 -8
311 -5 321 5 5 5 16 7 23 4 8 -3 14 0 14 6 0 6 4 10 9 9 7 -2 318 287 378 352
44 47 159 255 177 320 4 14 11 34 16 45 10 22 33 77 35 85 0 3 7 22 14 43 12
35 15 37 59 38 26 1 50 1 55 0 13 -2 98 89 92 99 -3 6 -2 10 3 10 12 0 76 122
92 175 6 22 14 47 17 55 3 8 8 25 10 38 2 12 9 35 15 50 34 83 56 219 43 269
-4 16 -19 30 -42 40 -21 8 -32 18 -25 22 6 3 13 20 16 36 2 17 5 30 6 30 3 0
10 41 12 68 0 15 5 27 9 27 4 0 6 9 4 20 -2 11 0 20 5 20 4 0 11 7 14 16 4 10
2 13 -7 8 -9 -6 -9 -5 0 7 7 8 10 25 6 37 -3 13 -1 22 6 22 7 0 10 -4 6 -9 -3
-5 -2 -12 2 -14 5 -3 9 8 10 25 0 21 -2 26 -8 17 -5 -8 -9 -9 -9 -3 0 6 3 14
8 18 11 11 9 76 -2 76 -6 0 -5 5 2 12 16 16 15 31 0 22 -9 -5 -9 -2 1 9 7 9 9
17 4 17 -5 0 -9 9 -9 20 0 13 4 16 10 10 15 -15 30 -12 18 3 -6 7 -11 24 -11
37 -1 14 -1 35 -1 48 0 12 -5 22 -10 22 -6 0 -10 5 -10 11 0 5 6 7 13 3 13 -9
-11 26 -28 38 -6 5 -4 8 4 8 11 0 9 4 -5 15 -14 11 -15 14 -4 15 13 0 13 2 1
9 -12 8 -13 12 -1 25 11 14 11 16 -2 11 -9 -4 -18 1 -22 10 -4 11 -2 14 7 10
6 -4 4 0 -6 8 -10 8 -17 19 -16 23 3 21 -2 34 -24 58 -13 14 -27 22 -31 18 -5
-4 -7 0 -5 8 3 20 -22 71 -32 64 -8 -5 -14 18 -10 39 1 5 -4 5 -10 1 -9 -5
-10 -2 -5 12 4 10 4 15 0 12 -4 -4 -15 4 -26 17 -11 14 -24 23 -29 20 -5 -4
-6 1 -3 9 4 11 0 16 -10 16 -9 0 -15 3 -15 8 4 21 -2 32 -13 26 -8 -5 -9 -2
-5 10 4 10 3 15 -3 11 -6 -3 -13 1 -16 9 -3 9 -12 16 -20 16 -8 0 -19 9 -26
20 -7 11 -21 20 -31 20 -13 0 -17 5 -13 16 3 8 2 13 -2 10 -5 -3 -15 4 -22 15
-15 20 -36 27 -24 7 4 -7 3 -8 -4 -4 -6 4 -8 14 -5 23 4 10 2 14 -4 10 -6 -4
-16 0 -23 8 -7 8 -17 12 -23 8 -6 -4 -8 0 -4 11 4 9 3 15 -2 11 -14 -8 -42 6
-34 18 4 6 -2 8 -15 5 -13 -4 -20 -2 -19 5 1 6 -9 12 -23 12 -32 1 -52 13 -44
27 5 7 1 9 -9 5 -10 -4 -17 -1 -17 6 0 8 -4 6 -10 -3 -8 -13 -10 -13 -10 2 0
12 -5 15 -17 11 -10 -4 -14 -2 -10 4 6 10 -19 19 -88 29 -16 3 -39 9 -50 14
-11 5 -37 11 -58 15 -25 4 -35 10 -30 18 4 7 -2 5 -12 -3 -17 -13 -18 -13 -13
0 4 11 0 16 -12 16 -10 0 -16 -5 -12 -11 3 -5 -1 -4 -9 2 -9 7 -31 15 -50 17
-19 3 -34 5 -34 6 0 8 -41 6 -46 -1 -4 -6 -9 -4 -12 6 -4 9 -3 13 3 10 6 -3
10 -1 10 4 0 14 -17 14 -25 1 -3 -5 -15 -10 -26 -10 -11 0 -18 4 -15 8 3 5 -1
9 -9 9 -8 0 -12 -4 -9 -8 2 -4 0 -10 -6 -14 -5 -3 -10 2 -11 12 0 11 -3 13 -6
5 -4 -9 -8 -10 -18 -2 -10 8 -15 8 -21 -1z m1200 -705 c3 -8 2 -12 -4 -9 -6 3
-10 10 -10 16 0 14 7 11 14 -7z"/>
<path d="M2110 3039 c0 -5 5 -7 10 -4 6 3 10 8 10 11 0 2 -4 4 -10 4 -5 0 -10
-5 -10 -11z"/>
</g>
</svg>
